# xmcd CD database file
#
# Track frame offsets:
#	150
#	5232
#	23347
#	38425
#	49432
#	66292
#	84402
#	86897
#	107535
#	124917
#	146025
#	163350
#	180034
#	197647
#	214084
#	221595
#
# Disc length: 3176 seconds
#
# Revision: 6
# Processed by: cddbd v1.5.2PL0 Copyright (c) Steve Scherf et al.
# Submitted via: jetAudio 7
#
DISCID=de0c6610
DTITLE=VIBE - VIBE 2집 (REMEMBER)
DYEAR=2003
DGENRE=blues
TTITLE0=Do U remember
TTITLE1=오래 오래
TTITLE2=하루에 시간이 주어진다면
TTITLE3=Blue
TTITLE4=멀리
TTITLE5=거짓말이죠
TTITLE6=여백
TTITLE7=사진을 보다가
TTITLE8=1st love
TTITLE9=미워하죠
TTITLE10=My everything
TTITLE11=모르겠니
TTITLE12=내가 너를
TTITLE13=기적
TTITLE14=Baby one more time
TTITLE15=She is...
EXTD=YEAR: 2003
EXTT0=
EXTT1=
EXTT2=
EXTT3=
EXTT4=
EXTT5=
EXTT6=
EXTT7=
EXTT8=
EXTT9=
EXTT10=
EXTT11=
EXTT12=
EXTT13=
EXTT14=
EXTT15=
PLAYORDER=
